solid Exported from Blender-2.91.0
facet normal 0.097738 0.000000 0.995212
outer loop
vertex 5.000000 5.000000 0.491041
vertex 10.000000 5.000000 0.000000
vertex 10.000000 10.000000 0.000000
endloop
endfacet
facet normal 0.000000 0.097738 0.995212
outer loop
vertex 5.000000 5.000000 0.491041
vertex 10.000000 10.000000 0.000000
vertex 5.000000 10.000000 0.000000
endloop
endfacet
facet normal 0.141654 0.000000 0.989916
outer loop
vertex -5.000000 5.000000 0.715487
vertex 0.000000 5.000000 0.000000
vertex 0.000000 10.000000 0.000000
endloop
endfacet
facet normal 0.000000 0.141654 0.989916
outer loop
vertex -5.000000 5.000000 0.715487
vertex 0.000000 10.000000 0.000000
vertex -5.000000 10.000000 0.000000
endloop
endfacet
facet normal 0.345512 -0.172531 0.922418
outer loop
vertex -5.000000 -5.000000 0.472128
vertex 0.000000 -5.000000 -1.400733
vertex 0.000000 0.000000 -0.465521
endloop
endfacet
facet normal 0.092296 0.093606 0.991322
outer loop
vertex -5.000000 -5.000000 0.472128
vertex 0.000000 0.000000 -0.465521
vertex -5.000000 0.000000 0.000000
endloop
endfacet
facet normal 0.000000 0.000000 1.000000
outer loop
vertex 5.000000 -5.000000 0.000000
vertex 10.000000 -5.000000 0.000000
vertex 10.000000 0.000000 0.000000
endloop
endfacet
facet normal -0.125507 0.125507 0.984122
outer loop
vertex 5.000000 -5.000000 0.000000
vertex 10.000000 0.000000 0.000000
vertex 5.000000 0.000000 -0.637659
endloop
endfacet
facet normal -0.267749 0.121888 0.955748
outer loop
vertex 0.000000 -5.000000 -1.400733
vertex 5.000000 -5.000000 0.000000
vertex 5.000000 0.000000 -0.637659
endloop
endfacet
facet normal 0.033821 -0.183749 0.982391
outer loop
vertex 0.000000 -5.000000 -1.400733
vertex 5.000000 0.000000 -0.637659
vertex 0.000000 0.000000 -0.465521
endloop
endfacet
facet normal 0.000000 0.000000 1.000000
outer loop
vertex 0.000000 -10.000000 0.000000
vertex 5.000000 -10.000000 0.000000
vertex 5.000000 -5.000000 0.000000
endloop
endfacet
facet normal -0.260451 0.260451 0.929694
outer loop
vertex 0.000000 -10.000000 0.000000
vertex 5.000000 -5.000000 0.000000
vertex 0.000000 -5.000000 -1.400733
endloop
endfacet
facet normal 0.000000 0.000000 1.000000
outer loop
vertex 5.000000 -10.000000 0.000000
vertex 10.000000 -10.000000 0.000000
vertex 10.000000 -5.000000 0.000000
endloop
endfacet
facet normal 0.000000 0.000000 1.000000
outer loop
vertex 5.000000 -10.000000 0.000000
vertex 10.000000 -5.000000 0.000000
vertex 5.000000 -5.000000 0.000000
endloop
endfacet
facet normal -0.093595 0.093595 0.991201
outer loop
vertex -10.000000 -5.000000 0.000000
vertex -5.000000 -5.000000 0.472128
vertex -5.000000 0.000000 0.000000
endloop
endfacet
facet normal 0.000000 0.000000 1.000000
outer loop
vertex -10.000000 -5.000000 0.000000
vertex -5.000000 0.000000 0.000000
vertex -10.000000 0.000000 0.000000
endloop
endfacet
facet normal 0.000000 -0.094007 0.995571
outer loop
vertex -10.000000 -10.000000 0.000000
vertex -5.000000 -10.000000 0.000000
vertex -5.000000 -5.000000 0.472128
endloop
endfacet
facet normal -0.094007 0.000000 0.995571
outer loop
vertex -10.000000 -10.000000 0.000000
vertex -5.000000 -5.000000 0.472128
vertex -10.000000 -5.000000 0.000000
endloop
endfacet
facet normal 0.000000 0.269761 0.962927
outer loop
vertex -5.000000 -10.000000 0.000000
vertex 0.000000 -10.000000 0.000000
vertex 0.000000 -5.000000 -1.400733
endloop
endfacet
facet normal 0.349409 -0.088082 0.932821
outer loop
vertex -5.000000 -10.000000 0.000000
vertex 0.000000 -5.000000 -1.400733
vertex -5.000000 -5.000000 0.472128
endloop
endfacet
facet normal -0.140254 0.140254 0.980131
outer loop
vertex -10.000000 5.000000 0.000000
vertex -5.000000 5.000000 0.715487
vertex -5.000000 10.000000 0.000000
endloop
endfacet
facet normal 0.000000 0.000000 1.000000
outer loop
vertex -10.000000 5.000000 0.000000
vertex -5.000000 10.000000 0.000000
vertex -10.000000 10.000000 0.000000
endloop
endfacet
facet normal 0.000000 -0.141654 0.989916
outer loop
vertex -10.000000 0.000000 0.000000
vertex -5.000000 0.000000 0.000000
vertex -5.000000 5.000000 0.715487
endloop
endfacet
facet normal -0.141654 0.000000 0.989916
outer loop
vertex -10.000000 0.000000 0.000000
vertex -5.000000 5.000000 0.715487
vertex -10.000000 5.000000 0.000000
endloop
endfacet
facet normal 0.092307 -0.092307 0.991443
outer loop
vertex -5.000000 0.000000 0.000000
vertex 0.000000 0.000000 -0.465521
vertex 0.000000 5.000000 0.000000
endloop
endfacet
facet normal 0.140254 -0.140254 0.980131
outer loop
vertex -5.000000 0.000000 0.000000
vertex 0.000000 5.000000 0.000000
vertex -5.000000 5.000000 0.715487
endloop
endfacet
facet normal -0.097274 0.097274 0.990492
outer loop
vertex 0.000000 5.000000 0.000000
vertex 5.000000 5.000000 0.491041
vertex 5.000000 10.000000 0.000000
endloop
endfacet
facet normal 0.000000 0.000000 1.000000
outer loop
vertex 0.000000 5.000000 0.000000
vertex 5.000000 10.000000 0.000000
vertex 0.000000 10.000000 0.000000
endloop
endfacet
facet normal 0.033564 -0.220075 0.974905
outer loop
vertex 0.000000 0.000000 -0.465521
vertex 5.000000 0.000000 -0.637659
vertex 5.000000 5.000000 0.491041
endloop
endfacet
facet normal -0.097321 -0.092263 0.990967
outer loop
vertex 0.000000 0.000000 -0.465521
vertex 5.000000 5.000000 0.491041
vertex 0.000000 5.000000 0.000000
endloop
endfacet
facet normal -0.126507 0.000000 0.991966
outer loop
vertex 5.000000 0.000000 -0.637659
vertex 10.000000 0.000000 0.000000
vertex 10.000000 5.000000 0.000000
endloop
endfacet
facet normal 0.095361 -0.219196 0.971009
outer loop
vertex 5.000000 0.000000 -0.637659
vertex 10.000000 5.000000 0.000000
vertex 5.000000 5.000000 0.491041
endloop
endfacet
endsolid Exported from Blender-2.91.0
