P1
# Created by GIMP version 2.10.22 PNM plug-in
64 64
1111111101010000101111111111111111101111111111111111111111111111111010
1010100100000111111111110100101010100010111111111111111111111110100000
0000000101111111111010101010111010111111111101111111111010101010000000
0011111111100100010110101010010111101010001011111110101000000000001011
1110100001000101101010101000100000101011111111010010000000000011110101
0000101010110101001010000000000101111101110100000000000100010100000000
1011101101010000100000001011111111011011000000000010101000000001010111
1010100100000000000011111111111101000000001001010100000100111101110101
0000000000001011111111111111101000000010101001000001001111011101000000
0000000011111111111111110101010101010100000001111111110100100000000000
0111111111111111111010010101010100001000101111101101000000000000001111
1111111111111110101011101010100010111111110101000000000000011111111111
1111111110101010110100000001010111101101000000000000101111111111111111
1011010101010100010000110110110000000000000000011111111111111111101010
1011111010001010011011101111000000000000001111111111111111111010110101
1010000001011101010000000000000000101111111111111111101010101110111101
0101010111101111100000000000011111111111111111110010110111101010101111
1101110010101000000001101111111111111111101000011111111101101011111011
1101101110000010111111111111111111000101101111111110111111111111011111
1111111101011111111111111110100000011111111111011111111111111111111111
0111111111111111111100000010101111111111111111111111111111111111111011
0111111111111010000000011111111111111111111111111111111111111111111111
1111111000000000001111111111111111111111111111111111111111111111111110
0000000000001111111101111111111111111111111111111101011111111101000000
0000000111110111111111111111111111111111111111101111111000000000000000
0001101001111111111111111111111111111010111111000100000000000000010010
0000111111111111111111111111111010100000000000000000000000001001010011
1111111111111111111111101101010000000000000000000000000000000001111111
1111111111111111110101010000000000000000000000000100000001111111111111
1111111111111101010000000000000000000000000000000000111111111111111111
1111010111010000000000000000000000000000000000111111111111111111111111
0101110000000000000000000000000000000000011111111111111111111101111101
0000000000000000000000000000000000011111111111111111111110101111000000
0000000000000000000000000000011111111111111111111011111111000000000000
0000000000000000000000001111111111111111111101111111000000000000000000
0000000000000000011111111111111111111111011111000000000000000000000000
0000000000001111111111111111110101111111000000000000000000000000000000
0000000111111111111111111101111111000000000000000000000000000000000000
0111111111111110101010111111000000000000000000000000000000000000001111
1111111101010101011111000000000000000000000000000000000000000011111110
0110101010101111000000000000000000000000000000000000000000000001001011
0101010111000000000000000000000000000000000000000000000000101101101111
1111000000000000000000000000000000000000000000000000100110110101011100
0000000000000000000000000000000000000000000000011011111111111100000000
0000000000000000000000000000000000000001001110111111111110000000000000
0000000000000000000000000000000000101011101111111100000000000000000000
0000000000000000000000000000010111111111111100000000000000000000000000
0000000000000000000000101010110111111100000000000000000000000000000000
0000000000000000001010110101110100000000000000000000000000000000000000
0000000000100101001010101100000000000000000000000000000000000000000000
0000000000100100100000000000000000000000000000000000000000000000000000
0000000000010000000000000000000000000000000000000000000000000000000000
0000000000000000000000000000000000000000000000000000000000000000000000
0000000000000000000000000000000000000000000000000000000000000000000000
0000000000000000000000000000000000000000000000000000000000000000000000
0000000000000000000000000000000000000000000000000000000000000000000000
0000000000000000000000000000000000000000000000000000000000000000000000
0000000000000000000000000000000000000000000000000000000000000000000000
000000000000000000000000000000000000