P2
# Created by GIMP version 2.10.22 PNM plug-in
64 64
255
156
159
162
165
167
168
170
171
173
174
176
177
179
181
183
183
181
177
172
167
161
156
151
147
144
144
146
150
155
160
164
167
168
170
170
170
169
168
167
167
167
169
171
170
169
167
164
161
158
155
153
151
151
151
153
156
158
158
158
158
157
157
157
157
159
163
165
168
170
172
174
176
177
179
180
182
184
186
188
188
186
183
178
173
167
162
157
154
151
151
153
157
162
166
170
172
174
174
174
174
173
172
171
170
170
172
174
174
173
171
169
166
164
162
160
159
158
159
161
163
165
165
165
164
163
162
161
161
160
164
167
169
172
174
176
178
180
182
184
185
187
190
192
192
190
187
183
178
173
168
164
160
158
158
159
163
168
172
175
177
178
178
178
177
175
174
173
172
172
174
175
176
175
174
172
171
169
167
166
166
166
167
168
171
172
172
171
170
168
166
165
164
160
163
167
169
172
174
177
179
181
183
185
187
189
192
194
195
193
191
187
182
178
173
169
166
164
163
165
169
173
177
180
181
182
182
181
179
177
175
173
172
172
174
176
177
176
176
175
174
173
172
172
172
173
174
176
178
179
179
177
175
173
170
167
165
159
162
165
168
171
173
176
178
180
183
185
187
190
193
195
196
195
193
190
186
181
177
173
170
169
168
170
173
178
181
184
185
185
184
183
180
178
176
173
172
172
173
175
176
177
177
177
177
176
176
177
178
179
180
183
185
186
185
183
180
176
173
169
166
156
160
164
167
169
172
174
176
179
181
183
186
189
192
195
196
196
194
191
188
184
180
177
174
172
172
174
177
181
185
186
187
187
186
184
181
178
175
173
171
170
172
174
176
177
177
178
178
179
180
181
182
184
186
188
191
191
190
187
183
179
174
170
166
154
158
161
164
167
169
171
173
176
178
180
183
186
190
193
195
195
194
191
188
185
182
179
176
175
175
176
179
184
187
188
189
188
187
184
181
178
174
171
169
169
170
172
174
176
177
178
179
181
182
184
186
188
190
193
195
195
194
190
186
181
176
170
165
151
155
159
162
164
166
168
170
172
174
176
179
182
186
190
192
193
192
190
188
185
182
179
177
176
176
178
181
185
188
190
190
189
187
184
180
177
173
169
167
166
168
170
173
175
176
178
180
182
184
186
189
191
194
196
198
199
197
193
188
182
176
170
164
149
153
157
159
161
163
164
165
167
169
171
174
177
181
186
189
190
190
188
187
184
182
179
177
176
177
178
181
186
189
190
190
189
186
183
179
175
171
168
165
164
166
169
171
173
175
178
180
183
185
188
191
193
196
199
201
201
198
195
189
183
176
169
162
147
152
155
157
158
159
160
161
162
163
165
168
171
176
181
184
186
186
186
184
182
180
178
177
176
176
178
181
185
188
189
189
188
186
182
178
174
170
166
163
162
164
167
169
172
174
177
180
183
185
189
192
194
197
200
202
202
200
195
190
183
175
168
161
146
151
154
156
156
157
156
156
156
157
159
161
165
170
175
179
182
183
183
182
180
179
177
175
175
175
177
180
184
187
189
188
187
185
181
177
173
169
165
162
161
163
166
168
171
174
176
179
182
185
189
192
195
198
200
203
202
200
195
189
182
175
167
159
146
152
154
155
155
155
154
153
152
152
153
155
159
164
170
174
177
179
179
179
178
176
175
174
173
174
175
179
183
186
187
187
186
184
180
176
172
168
164
162
161
163
165
168
171
173
176
179
182
185
188
191
195
197
200
202
202
200
195
189
182
174
166
158
148
153
156
157
156
154
153
151
149
148
149
150
154
159
165
170
174
176
177
177
176
175
173
172
172
172
174
178
182
185
186
187
185
183
180
176
172
168
165
162
161
163
166
169
171
174
176
179
182
185
188
191
194
197
200
202
202
199
194
188
181
173
165
157
152
157
159
159
158
156
153
151
148
147
147
148
151
156
163
168
172
174
175
175
175
174
173
172
171
172
174
177
182
185
186
186
185
183
181
177
173
170
166
164
163
165
168
170
173
175
177
180
182
185
188
191
194
196
199
201
201
198
194
188
181
173
165
158
157
162
164
164
162
160
157
153
151
149
148
149
152
157
163
169
172
175
176
176
175
174
173
172
172
172
174
177
182
185
187
187
186
185
182
179
176
172
169
167
167
168
171
173
175
177
179
181
183
186
188
191
193
196
199
201
201
198
194
188
182
174
167
159
161
165
167
167
165
162
159
156
153
151
150
151
153
158
165
170
173
175
176
176
175
174
173
172
171
171
173
176
181
184
186
186
186
184
182
179
176
173
171
169
168
170
173
175
176
178
179
181
183
185
187
189
192
194
196
199
199
197
193
187
181
174
167
161
162
166
168
168
166
163
160
157
154
152
151
152
155
160
166
171
175
176
177
176
175
173
172
170
169
169
170
174
178
181
183
184
184
183
181
178
175
172
170
169
168
170
173
174
176
177
178
180
181
182
184
186
188
190
193
195
195
193
190
185
179
173
167
161
161
166
167
167
166
163
160
158
155
154
153
155
157
162
168
173
176
177
177
176
174
172
170
168
166
166
167
170
175
178
180
181
181
180
178
175
173
170
168
167
167
169
172
173
175
175
176
177
178
179
180
181
183
185
187
190
190
189
186
182
177
172
167
162
160
164
166
166
165
163
160
158
156
155
156
157
160
165
171
176
178
179
178
177
174
171
168
165
163
162
163
166
171
174
176
177
177
176
174
172
170
167
165
164
165
167
170
171
172
173
173
173
174
174
175
176
177
179
181
184
185
184
182
178
174
170
166
162
158
162
164
164
163
162
160
158
157
157
158
160
164
169
174
179
180
181
180
177
174
170
167
163
160
159
159
162
167
170
172
173
173
172
170
168
166
163
162
161
162
164
167
169
170
170
170
170
169
169
169
170
171
173
175
178
179
179
177
175
172
168
165
162
156
160
162
162
162
161
160
159
159
160
161
164
168
173
178
182
183
183
181
178
175
170
166
161
158
156
156
159
164
167
169
169
169
168
166
164
162
159
158
158
159
161
164
166
167
167
166
166
165
164
164
164
165
166
168
171
173
173
173
171
169
167
164
162
154
158
160
161
161
160
160
160
161
162
165
168
172
177
182
186
187
186
184
180
176
171
166
161
157
154
154
157
161
164
166
166
166
164
162
160
158
156
154
154
155
158
161
163
164
164
163
162
161
159
159
158
159
160
162
166
168
169
169
168
167
166
164
163
153
157
159
160
160
160
161
162
163
166
169
172
177
182
187
190
191
189
187
183
178
172
167
161
157
154
154
156
160
163
164
165
164
162
160
157
154
152
151
151
152
156
159
161
161
161
160
159
157
155
154
154
154
155
157
160
163
165
165
166
165
165
164
164
153
156
158
160
160
161
162
164
166
169
173
177
182
187
191
194
195
193
190
186
181
175
169
163
158
155
154
157
161
163
164
164
163
160
158
155
152
150
148
148
150
154
157
159
159
159
158
156
154
152
151
150
150
151
153
157
160
162
163
164
165
165
165
165
154
157
159
161
162
163
165
167
170
173
177
182
186
191
196
199
199
197
194
189
184
178
172
166
161
158
157
159
163
165
166
165
163
160
157
154
151
149
147
147
149
152
156
158
159
158
157
155
153
151
149
148
147
148
150
154
158
160
162
164
165
166
166
167
157
160
162
163
164
166
168
170
174
177
181
186
191
196
200
203
203
201
198
193
188
182
176
170
165
161
160
162
166
168
168
167
165
162
159
155
152
149
147
147
149
153
156
158
159
159
157
155
153
151
149
147
147
147
150
154
157
160
162
164
166
167
168
169
161
164
165
167
168
170
172
174
178
181
186
190
195
200
204
207
207
205
202
197
192
186
180
174
169
166
165
167
170
172
172
171
168
165
161
158
154
151
149
149
151
155
158
160
161
160
159
157
155
152
150
149
148
149
151
155
158
161
164
166
168
169
170
171
166
169
171
172
173
175
177
179
182
185
190
194
199
203
208
210
210
208
205
201
196
190
184
179
174
171
170
172
175
177
177
175
173
169
166
162
158
155
153
153
154
158
162
164
164
164
162
160
158
155
153
152
151
152
154
158
161
164
167
169
170
172
173
174
173
176
177
178
179
180
182
183
186
189
193
197
201
206
210
212
212
211
208
204
199
194
189
184
179
177
176
177
181
182
182
180
178
174
171
167
163
160
158
157
159
162
166
167
168
167
166
164
162
159
157
156
155
155
157
161
165
167
170
172
173
174
176
176
180
182
183
184
184
185
186
187
189
192
195
198
202
207
211
213
213
212
209
206
201
196
191
187
183
181
180
182
185
186
186
184
181
178
174
170
166
163
161
160
161
164
167
169
170
169
168
166
164
162
160
158
158
158
160
164
167
170
172
173
175
175
176
177
186
188
189
189
189
189
189
190
191
193
196
199
203
206
210
213
213
212
209
206
202
198
193
189
186
184
183
185
188
189
189
187
184
180
176
172
168
164
162
160
161
164
167
169
169
169
168
166
164
163
161
160
160
160
162
166
169
171
173
174
175
175
176
176
191
192
193
193
193
192
192
192
192
194
196
198
202
205
209
211
212
211
209
206
202
198
194
190
188
186
186
187
190
191
191
189
186
182
178
173
169
165
162
160
160
163
166
167
168
168
167
166
164
163
162
161
161
162
164
167
169
171
172
173
174
174
174
174
194
196
196
196
195
194
193
193
193
194
195
197
200
204
207
209
210
209
207
204
201
198
194
191
189
188
188
190
192
193
193
191
188
184
179
174
169
164
161
159
159
161
163
165
166
166
165
164
163
162
161
161
161
162
164
167
170
171
172
172
172
171
171
171
197
198
198
198
196
195
194
193
193
193
194
196
198
201
205
207
207
207
205
203
200
197
194
191
190
189
189
191
194
195
194
192
189
185
180
174
169
164
160
157
156
158
161
162
163
163
163
162
162
161
161
161
162
163
165
167
169
170
171
170
170
169
168
167
198
199
199
198
197
195
194
192
192
192
192
194
196
199
202
204
205
204
203
201
198
196
194
192
190
190
191
193
195
196
195
193
190
186
180
175
169
164
159
156
154
156
158
159
160
161
160
160
160
160
160
161
161
163
165
167
169
169
169
168
167
166
165
163
198
199
199
198
196
195
193
191
190
190
190
192
194
196
199
201
202
201
200
199
197
195
193
192
191
191
192
194
197
198
197
195
191
187
181
176
170
164
159
155
153
154
156
157
158
158
158
158
159
159
159
160
161
163
165
167
168
169
168
166
165
163
161
160
197
198
198
197
195
193
191
190
189
188
188
189
191
194
197
198
199
199
198
197
195
194
193
192
192
192
194
196
198
199
198
196
193
188
183
177
170
164
159
154
152
153
154
155
156
157
157
157
158
158
159
160
162
163
165
167
168
168
166
165
162
160
158
157
195
196
196
195
193
191
190
188
187
186
187
188
189
192
194
196
197
197
196
195
194
194
193
193
193
194
196
198
200
201
200
198
195
190
185
179
172
166
160
155
153
153
154
155
156
156
156
157
157
158
159
161
162
164
165
167
168
167
166
163
161
158
156
154
193
194
194
193
191
189
188
186
185
185
185
186
188
190
193
194
195
195
195
195
194
194
194
194
195
196
198
200
203
203
203
200
197
193
187
181
175
168
162
157
154
154
155
156
156
157
157
158
158
159
160
162
163
165
166
168
169
168
166
163
160
157
155
153
191
192
192
191
189
188
186
185
184
184
185
186
187
190
192
194
195
195
195
195
195
195
195
196
197
199
201
203
205
206
205
203
200
196
190
185
178
172
166
161
158
157
158
158
159
159
159
160
160
161
162
163
165
166
168
170
170
169
167
164
161
158
155
153
189
190
190
189
188
187
186
185
184
184
185
186
188
190
193
194
195
196
196
196
196
197
198
199
200
202
204
207
209
210
209
207
204
200
195
189
183
176
170
166
163
162
163
163
163
163
163
163
163
164
165
166
167
169
170
172
172
171
169
166
163
160
157
155
189
190
190
189
188
187
186
186
185
186
187
188
190
192
195
196
197
198
199
199
199
200
201
202
204
206
208
211
213
214
213
211
208
204
199
194
188
182
177
172
169
168
169
169
169
169
168
168
168
168
169
170
171
172
174
175
175
174
172
169
166
164
161
160
188
190
190
189
189
188
187
187
187
188
189
191
193
195
197
199
200
201
202
202
203
204
205
206
208
210
212
214
217
217
217
215
213
209
204
199
194
188
183
179
176
175
176
176
175
174
174
173
173
172
173
173
174
175
176
177
177
176
174
172
169
167
165
163
188
189
190
190
189
189
189
189
189
190
191
193
195
197
200
202
203
204
205
205
206
207
208
209
211
213
215
217
219
220
220
218
216
213
208
204
199
194
189
185
183
182
182
182
181
180
178
177
176
175
174
174
174
175
176
177
177
176
174
172
170
167
166
164
187
189
189
190
190
190
190
190
191
192
193
195
197
200
203
205
206
207
208
208
209
210
210
211
213
214
216
218
220
221
221
220
218
215
212
208
203
199
194
191
188
188
188
187
185
184
182
180
178
176
175
174
174
173
174
175
175
174
173
171
169
167
165
165
186
188
189
190
190
190
191
191
192
193
195
197
199
202
205
207
209
210
210
211
211
212
212
213
214
215
217
219
221
222
222
221
220
217
214
211
207
203
199
195
193
193
192
191
189
187
184
182
179
177
175
173
172
171
172
173
173
172
170
169
167
165
164
164
185
188
189
190
191
191
192
192
193
194
196
198
201
204
207
209
211
212
212
213
213
213
213
214
214
215
217
218
220
221
222
221
220
218
216
212
209
205
202
199
197
196
196
194
192
189
186
183
180
177
174
172
170
169
169
170
169
169
167
166
165
164
163
163
185
188
190
191
192
192
193
193
194
195
197
199
202
205
208
211
212
213
214
214
214
214
214
214
214
214
215
217
219
220
221
221
220
218
216
213
210
207
204
201
200
199
198
196
194
191
187
184
180
176
173
170
168
167
166
167
167
166
165
163
162
162
161
162
185
188
190
192
193
193
194
194
195
196
198
200
202
205
209
212
214
215
215
215
215
214
214
213
213
213
214
215
217
218
219
219
219
218
216
214
211
208
205
203
201
200
199
197
195
191
188
184
180
176
172
169
167
165
164
165
164
164
163
162
161
160
161
161
185
188
191
193
194
194
195
195
196
197
198
200
202
206
209
212
214
215
216
216
215
214
213
213
212
211
212
213
215
216
217
218
217
216
215
213
211
208
206
203
201
200
199
197
195
191
188
184
180
176
172
169
167
165
164
164
163
163
162
161
160
160
160
161
185
189
192
194
195
195
196
196
196
197
198
200
202
205
209
213
215
216
216
216
215
214
213
211
210
210
210
210
212
214
215
215
215
215
214
212
210
208
205
203
201
200
199
197
194
191
187
184
180
176
173
170
168
166
165
164
164
163
162
161
161
161
161
162
186
191
194
195
196
197
197
197
197
197
198
199
202
205
209
212
215
216
216
216
215
214
212
210
209
208
207
208
210
212
213
213
214
213
212
211
209
206
204
202
200
199
197
195
193
190
187
184
180
177
175
172
170
168
167
167
166
165
164
163
163
163
163
165
187
192
195
197
198
198
197
197
197
197
197
199
201
204
208
212
214
216
216
216
215
213
211
209
207
206
206
206
208
210
211
212
212
212
211
209
207
205
203
200
198
197
196
194
192
190
187
184
182
179
177
175
173
172
171
171
170
169
168
167
166
167
167
168
189
193
196
198
199
199
198
197
197
196
197
198
200
203
208
211
214
215
216
216
214
213
211
209
207
205
205
205
207
209
210
211
211
211
210
208
206
204
202
199
197
196
195
193
191
190
188
186
184
182
181
180
178
177
177
176
175
174
173
172
172
172
172
173
190
195
198
199
200
200
199
198
197
196
196
197
199
203
207
211
214
215
216
216
214
213
211
209
207
205
205
205
207
209
210
211
211
210
209
208
206
204
201
199
196
195
194
193
192
191
189
188
187
186
186
185
185
184
183
183
182
181
180
179
178
178
178
179
191
196
199
200
201
200
199
198
197
196
196
197
199
202
207
210
213
215
216
216
215
213
212
210
208
207
206
207
209
210
211
212
212
212
210
209
207
204
202
199
197
196
195
194
193
193
192
192
192
191
192
192
192
191
191
190
190
188
187
186
185
185
185
186
191
196
199
200
200
200
199
197
196
195
195
195
197
200
205
209
212
213
214
214
214
213
211
210
208
207
207
207
209
211
212
213
212
212
211
209
207
204
202
199
197
196
195
195
195
195
195
195
195
196
196
197
197
197
197
197
196
195
193
192
191
191
191
191
191
195
198
199
199
198
197
195
194
193
192
193
194
198
202
206
209
211
212
212
212
211
209
208
207
206
206
207
209
211
212
212
212
211
210
208
206
203
201
198
197
196
195
195
196
196
197
197
198
199
200
201
201
202
202
201
200
199
198
197
196
195
195
195
189
194
196
197
197
196
195
193
191
190
189
190
191
194
199
203
205
207
208
209
208
208
207
206
205
204
204
206
208
209
210
211
211
210
208
207
204
202
200
198
196
195
196
196
197
197
198
199
200
201
203
203
204
205
205
205
204
203
201
200
198
197
197
197
187
192
194
195
195
194
192
190
189
187
187
187
188
191
195
199
202
203
204
205
204
204
203
202
202
202
202
204
206
207
209
209
209
208
206
205
203
200
198
196
195
195
196
196
197
199
200
201
202
203
204
205
206
207
207
207
206
205
203
201
200
199
198
198
185
189
192
193
192
191
190
188
186
185
184
184
185
188
192
196
198
200
200
200
200
200
199
198
198
198
199
201
203
205
206
207
206
205
204
202
201
199
197
195
195
195
196
197
198
200
201
202
203
204
205
206
207
208
208
208
207
206
204
202
200
198
197
197
183
187
189
190
190
189
187
186
184
182
182
182
183
185
189
192
195
196
196
196
196
195
195
194
194
195
196
198
200
202
203
204
204
203
202
200
198
197
195
194
194
195
196
198
199
201
202
203
204
205
206
207
207
208
208
209
208
206
204
202
199
197
196
195
181
185
187
188
188
187
185
184
182
181
180
180
181
183
187
190
192
193
193
192
192
191
190
190
190
191
192
195
197
199
201
201
201
200
199
198
196
195
194
193
194
195
197
199
201
202
203
204
205
206
206
207
207
208
208
209
208
206
204
201
198
195
193
192
179
183
185
186
186
185
184
182
181
180
179
179
180
183
186
188
190
190
190
189
188
187
186
186
186
187
189
191
194
197
198
198
198
198
197
196
195
194
193
193
194
196
198
200
202
203
204
205
206
206
207
207
207
207
208
208
208
205
203
199
196
193
190
188
