P3
# Created by GIMP version 2.10.22 PNM plug-in
64 64
255
156
156
156
159
159
159
162
162
162
165
165
165
167
167
167
168
168
168
170
170
170
171
171
171
173
173
173
174
174
174
176
176
176
177
177
177
179
179
179
181
181
181
183
183
183
183
183
183
181
181
181
177
177
177
172
172
172
167
167
167
161
161
161
156
156
156
151
151
151
147
147
147
144
144
144
144
144
144
146
146
146
150
150
150
155
155
155
160
160
160
164
164
164
167
167
167
168
168
168
170
170
170
170
170
170
170
170
170
169
169
169
168
168
168
167
167
167
167
167
167
167
167
167
169
169
169
171
171
171
170
170
170
169
169
169
167
167
167
164
164
164
161
161
161
158
158
158
155
155
155
153
153
153
151
151
151
151
151
151
151
151
151
153
153
153
156
156
156
158
158
158
158
158
158
158
158
158
158
158
158
157
157
157
157
157
157
157
157
157
157
157
157
159
159
159
163
163
163
165
165
165
168
168
168
170
170
170
172
172
172
174
174
174
176
176
176
177
177
177
179
179
179
180
180
180
182
182
182
184
184
184
186
186
186
188
188
188
188
188
188
186
186
186
183
183
183
178
178
178
173
173
173
167
167
167
162
162
162
157
157
157
154
154
154
151
151
151
151
151
151
153
153
153
157
157
157
162
162
162
166
166
166
170
170
170
172
172
172
174
174
174
174
174
174
174
174
174
174
174
174
173
173
173
172
172
172
171
171
171
170
170
170
170
170
170
172
172
172
174
174
174
174
174
174
173
173
173
171
171
171
169
169
169
166
166
166
164
164
164
162
162
162
160
160
160
159
159
159
158
158
158
159
159
159
161
161
161
163
163
163
165
165
165
165
165
165
165
165
165
164
164
164
163
163
163
162
162
162
161
161
161
161
161
161
160
160
160
164
164
164
167
167
167
169
169
169
172
172
172
174
174
174
176
176
176
178
178
178
180
180
180
182
182
182
184
184
184
185
185
185
187
187
187
190
190
190
192
192
192
192
192
192
190
190
190
187
187
187
183
183
183
178
178
178
173
173
173
168
168
168
164
164
164
160
160
160
158
158
158
158
158
158
159
159
159
163
163
163
168
168
168
172
172
172
175
175
175
177
177
177
178
178
178
178
178
178
178
178
178
177
177
177
175
175
175
174
174
174
173
173
173
172
172
172
172
172
172
174
174
174
175
175
175
176
176
176
175
175
175
174
174
174
172
172
172
171
171
171
169
169
169
167
167
167
166
166
166
166
166
166
166
166
166
167
167
167
168
168
168
171
171
171
172
172
172
172
172
172
171
171
171
170
170
170
168
168
168
166
166
166
165
165
165
164
164
164
160
160
160
163
163
163
167
167
167
169
169
169
172
172
172
174
174
174
177
177
177
179
179
179
181
181
181
183
183
183
185
185
185
187
187
187
189
189
189
192
192
192
194
194
194
195
195
195
193
193
193
191
191
191
187
187
187
182
182
182
178
178
178
173
173
173
169
169
169
166
166
166
164
164
164
163
163
163
165
165
165
169
169
169
173
173
173
177
177
177
180
180
180
181
181
181
182
182
182
182
182
182
181
181
181
179
179
179
177
177
177
175
175
175
173
173
173
172
172
172
172
172
172
174
174
174
176
176
176
177
177
177
176
176
176
176
176
176
175
175
175
174
174
174
173
173
173
172
172
172
172
172
172
172
172
172
173
173
173
174
174
174
176
176
176
178
178
178
179
179
179
179
179
179
177
177
177
175
175
175
173
173
173
170
170
170
167
167
167
165
165
165
159
159
159
162
162
162
165
165
165
168
168
168
171
171
171
173
173
173
176
176
176
178
178
178
180
180
180
183
183
183
185
185
185
187
187
187
190
190
190
193
193
193
195
195
195
196
196
196
195
195
195
193
193
193
190
190
190
186
186
186
181
181
181
177
177
177
173
173
173
170
170
170
169
169
169
168
168
168
170
170
170
173
173
173
178
178
178
181
181
181
184
184
184
185
185
185
185
185
185
184
184
184
183
183
183
180
180
180
178
178
178
176
176
176
173
173
173
172
172
172
172
172
172
173
173
173
175
175
175
176
176
176
177
177
177
177
177
177
177
177
177
177
177
177
176
176
176
176
176
176
177
177
177
178
178
178
179
179
179
180
180
180
183
183
183
185
185
185
186
186
186
185
185
185
183
183
183
180
180
180
176
176
176
173
173
173
169
169
169
166
166
166
156
156
156
160
160
160
164
164
164
167
167
167
169
169
169
172
172
172
174
174
174
176
176
176
179
179
179
181
181
181
183
183
183
186
186
186
189
189
189
192
192
192
195
195
195
196
196
196
196
196
196
194
194
194
191
191
191
188
188
188
184
184
184
180
180
180
177
177
177
174
174
174
172
172
172
172
172
172
174
174
174
177
177
177
181
181
181
185
185
185
186
186
186
187
187
187
187
187
187
186
186
186
184
184
184
181
181
181
178
178
178
175
175
175
173
173
173
171
171
171
170
170
170
172
172
172
174
174
174
176
176
176
177
177
177
177
177
177
178
178
178
178
178
178
179
179
179
180
180
180
181
181
181
182
182
182
184
184
184
186
186
186
188
188
188
191
191
191
191
191
191
190
190
190
187
187
187
183
183
183
179
179
179
174
174
174
170
170
170
166
166
166
154
154
154
158
158
158
161
161
161
164
164
164
167
167
167
169
169
169
171
171
171
173
173
173
176
176
176
178
178
178
180
180
180
183
183
183
186
186
186
190
190
190
193
193
193
195
195
195
195
195
195
194
194
194
191
191
191
188
188
188
185
185
185
182
182
182
179
179
179
176
176
176
175
175
175
175
175
175
176
176
176
179
179
179
184
184
184
187
187
187
188
188
188
189
189
189
188
188
188
187
187
187
184
184
184
181
181
181
178
178
178
174
174
174
171
171
171
169
169
169
169
169
169
170
170
170
172
172
172
174
174
174
176
176
176
177
177
177
178
178
178
179
179
179
181
181
181
182
182
182
184
184
184
186
186
186
188
188
188
190
190
190
193
193
193
195
195
195
195
195
195
194
194
194
190
190
190
186
186
186
181
181
181
176
176
176
170
170
170
165
165
165
151
151
151
155
155
155
159
159
159
162
162
162
164
164
164
166
166
166
168
168
168
170
170
170
172
172
172
174
174
174
176
176
176
179
179
179
182
182
182
186
186
186
190
190
190
192
192
192
193
193
193
192
192
192
190
190
190
188
188
188
185
185
185
182
182
182
179
179
179
177
177
177
176
176
176
176
176
176
178
178
178
181
181
181
185
185
185
188
188
188
190
190
190
190
190
190
189
189
189
187
187
187
184
184
184
180
180
180
177
177
177
173
173
173
169
169
169
167
167
167
166
166
166
168
168
168
170
170
170
173
173
173
175
175
175
176
176
176
178
178
178
180
180
180
182
182
182
184
184
184
186
186
186
189
189
189
191
191
191
194
194
194
196
196
196
198
198
198
199
199
199
197
197
197
193
193
193
188
188
188
182
182
182
176
176
176
170
170
170
164
164
164
149
149
149
153
153
153
157
157
157
159
159
159
161
161
161
163
163
163
164
164
164
165
165
165
167
167
167
169
169
169
171
171
171
174
174
174
177
177
177
181
181
181
186
186
186
189
189
189
190
190
190
190
190
190
188
188
188
187
187
187
184
184
184
182
182
182
179
179
179
177
177
177
176
176
176
177
177
177
178
178
178
181
181
181
186
186
186
189
189
189
190
190
190
190
190
190
189
189
189
186
186
186
183
183
183
179
179
179
175
175
175
171
171
171
168
168
168
165
165
165
164
164
164
166
166
166
169
169
169
171
171
171
173
173
173
175
175
175
178
178
178
180
180
180
183
183
183
185
185
185
188
188
188
191
191
191
193
193
193
196
196
196
199
199
199
201
201
201
201
201
201
198
198
198
195
195
195
189
189
189
183
183
183
176
176
176
169
169
169
162
162
162
147
147
147
152
152
152
155
155
155
157
157
157
158
158
158
159
159
159
160
160
160
161
161
161
162
162
162
163
163
163
165
165
165
168
168
168
171
171
171
176
176
176
181
181
181
184
184
184
186
186
186
186
186
186
186
186
186
184
184
184
182
182
182
180
180
180
178
178
178
177
177
177
176
176
176
176
176
176
178
178
178
181
181
181
185
185
185
188
188
188
189
189
189
189
189
189
188
188
188
186
186
186
182
182
182
178
178
178
174
174
174
170
170
170
166
166
166
163
163
163
162
162
162
164
164
164
167
167
167
169
169
169
172
172
172
174
174
174
177
177
177
180
180
180
183
183
183
185
185
185
189
189
189
192
192
192
194
194
194
197
197
197
200
200
200
202
202
202
202
202
202
200
200
200
195
195
195
190
190
190
183
183
183
175
175
175
168
168
168
161
161
161
146
146
146
151
151
151
154
154
154
156
156
156
156
156
156
157
157
157
156
156
156
156
156
156
156
156
156
157
157
157
159
159
159
161
161
161
165
165
165
170
170
170
175
175
175
179
179
179
182
182
182
183
183
183
183
183
183
182
182
182
180
180
180
179
179
179
177
177
177
175
175
175
175
175
175
175
175
175
177
177
177
180
180
180
184
184
184
187
187
187
189
189
189
188
188
188
187
187
187
185
185
185
181
181
181
177
177
177
173
173
173
169
169
169
165
165
165
162
162
162
161
161
161
163
163
163
166
166
166
168
168
168
171
171
171
174
174
174
176
176
176
179
179
179
182
182
182
185
185
185
189
189
189
192
192
192
195
195
195
198
198
198
200
200
200
203
203
203
202
202
202
200
200
200
195
195
195
189
189
189
182
182
182
175
175
175
167
167
167
159
159
159
146
146
146
152
152
152
154
154
154
155
155
155
155
155
155
155
155
155
154
154
154
153
153
153
152
152
152
152
152
152
153
153
153
155
155
155
159
159
159
164
164
164
170
170
170
174
174
174
177
177
177
179
179
179
179
179
179
179
179
179
178
178
178
176
176
176
175
175
175
174
174
174
173
173
173
174
174
174
175
175
175
179
179
179
183
183
183
186
186
186
187
187
187
187
187
187
186
186
186
184
184
184
180
180
180
176
176
176
172
172
172
168
168
168
164
164
164
162
162
162
161
161
161
163
163
163
165
165
165
168
168
168
171
171
171
173
173
173
176
176
176
179
179
179
182
182
182
185
185
185
188
188
188
191
191
191
195
195
195
197
197
197
200
200
200
202
202
202
202
202
202
200
200
200
195
195
195
189
189
189
182
182
182
174
174
174
166
166
166
158
158
158
148
148
148
153
153
153
156
156
156
157
157
157
156
156
156
154
154
154
153
153
153
151
151
151
149
149
149
148
148
148
149
149
149
150
150
150
154
154
154
159
159
159
165
165
165
170
170
170
174
174
174
176
176
176
177
177
177
177
177
177
176
176
176
175
175
175
173
173
173
172
172
172
172
172
172
172
172
172
174
174
174
178
178
178
182
182
182
185
185
185
186
186
186
187
187
187
185
185
185
183
183
183
180
180
180
176
176
176
172
172
172
168
168
168
165
165
165
162
162
162
161
161
161
163
163
163
166
166
166
169
169
169
171
171
171
174
174
174
176
176
176
179
179
179
182
182
182
185
185
185
188
188
188
191
191
191
194
194
194
197
197
197
200
200
200
202
202
202
202
202
202
199
199
199
194
194
194
188
188
188
181
181
181
173
173
173
165
165
165
157
157
157
152
152
152
157
157
157
159
159
159
159
159
159
158
158
158
156
156
156
153
153
153
151
151
151
148
148
148
147
147
147
147
147
147
148
148
148
151
151
151
156
156
156
163
163
163
168
168
168
172
172
172
174
174
174
175
175
175
175
175
175
175
175
175
174
174
174
173
173
173
172
172
172
171
171
171
172
172
172
174
174
174
177
177
177
182
182
182
185
185
185
186
186
186
186
186
186
185
185
185
183
183
183
181
181
181
177
177
177
173
173
173
170
170
170
166
166
166
164
164
164
163
163
163
165
165
165
168
168
168
170
170
170
173
173
173
175
175
175
177
177
177
180
180
180
182
182
182
185
185
185
188
188
188
191
191
191
194
194
194
196
196
196
199
199
199
201
201
201
201
201
201
198
198
198
194
194
194
188
188
188
181
181
181
173
173
173
165
165
165
158
158
158
157
157
157
162
162
162
164
164
164
164
164
164
162
162
162
160
160
160
157
157
157
153
153
153
151
151
151
149
149
149
148
148
148
149
149
149
152
152
152
157
157
157
163
163
163
169
169
169
172
172
172
175
175
175
176
176
176
176
176
176
175
175
175
174
174
174
173
173
173
172
172
172
172
172
172
172
172
172
174
174
174
177
177
177
182
182
182
185
185
185
187
187
187
187
187
187
186
186
186
185
185
185
182
182
182
179
179
179
176
176
176
172
172
172
169
169
169
167
167
167
167
167
167
168
168
168
171
171
171
173
173
173
175
175
175
177
177
177
179
179
179
181
181
181
183
183
183
186
186
186
188
188
188
191
191
191
193
193
193
196
196
196
199
199
199
201
201
201
201
201
201
198
198
198
194
194
194
188
188
188
182
182
182
174
174
174
167
167
167
159
159
159
161
161
161
165
165
165
167
167
167
167
167
167
165
165
165
162
162
162
159
159
159
156
156
156
153
153
153
151
151
151
150
150
150
151
151
151
153
153
153
158
158
158
165
165
165
170
170
170
173
173
173
175
175
175
176
176
176
176
176
176
175
175
175
174
174
174
173
173
173
172
172
172
171
171
171
171
171
171
173
173
173
176
176
176
181
181
181
184
184
184
186
186
186
186
186
186
186
186
186
184
184
184
182
182
182
179
179
179
176
176
176
173
173
173
171
171
171
169
169
169
168
168
168
170
170
170
173
173
173
175
175
175
176
176
176
178
178
178
179
179
179
181
181
181
183
183
183
185
185
185
187
187
187
189
189
189
192
192
192
194
194
194
196
196
196
199
199
199
199
199
199
197
197
197
193
193
193
187
187
187
181
181
181
174
174
174
167
167
167
161
161
161
162
162
162
166
166
166
168
168
168
168
168
168
166
166
166
163
163
163
160
160
160
157
157
157
154
154
154
152
152
152
151
151
151
152
152
152
155
155
155
160
160
160
166
166
166
171
171
171
175
175
175
176
176
176
177
177
177
176
176
176
175
175
175
173
173
173
172
172
172
170
170
170
169
169
169
169
169
169
170
170
170
174
174
174
178
178
178
181
181
181
183
183
183
184
184
184
184
184
184
183
183
183
181
181
181
178
178
178
175
175
175
172
172
172
170
170
170
169
169
169
168
168
168
170
170
170
173
173
173
174
174
174
176
176
176
177
177
177
178
178
178
180
180
180
181
181
181
182
182
182
184
184
184
186
186
186
188
188
188
190
190
190
193
193
193
195
195
195
195
195
195
193
193
193
190
190
190
185
185
185
179
179
179
173
173
173
167
167
167
161
161
161
161
161
161
166
166
166
167
167
167
167
167
167
166
166
166
163
163
163
160
160
160
158
158
158
155
155
155
154
154
154
153
153
153
155
155
155
157
157
157
162
162
162
168
168
168
173
173
173
176
176
176
177
177
177
177
177
177
176
176
176
174
174
174
172
172
172
170
170
170
168
168
168
166
166
166
166
166
166
167
167
167
170
170
170
175
175
175
178
178
178
180
180
180
181
181
181
181
181
181
180
180
180
178
178
178
175
175
175
173
173
173
170
170
170
168
168
168
167
167
167
167
167
167
169
169
169
172
172
172
173
173
173
175
175
175
175
175
175
176
176
176
177
177
177
178
178
178
179
179
179
180
180
180
181
181
181
183
183
183
185
185
185
187
187
187
190
190
190
190
190
190
189
189
189
186
186
186
182
182
182
177
177
177
172
172
172
167
167
167
162
162
162
160
160
160
164
164
164
166
166
166
166
166
166
165
165
165
163
163
163
160
160
160
158
158
158
156
156
156
155
155
155
156
156
156
157
157
157
160
160
160
165
165
165
171
171
171
176
176
176
178
178
178
179
179
179
178
178
178
177
177
177
174
174
174
171
171
171
168
168
168
165
165
165
163
163
163
162
162
162
163
163
163
166
166
166
171
171
171
174
174
174
176
176
176
177
177
177
177
177
177
176
176
176
174
174
174
172
172
172
170
170
170
167
167
167
165
165
165
164
164
164
165
165
165
167
167
167
170
170
170
171
171
171
172
172
172
173
173
173
173
173
173
173
173
173
174
174
174
174
174
174
175
175
175
176
176
176
177
177
177
179
179
179
181
181
181
184
184
184
185
185
185
184
184
184
182
182
182
178
178
178
174
174
174
170
170
170
166
166
166
162
162
162
158
158
158
162
162
162
164
164
164
164
164
164
163
163
163
162
162
162
160
160
160
158
158
158
157
157
157
157
157
157
158
158
158
160
160
160
164
164
164
169
169
169
174
174
174
179
179
179
180
180
180
181
181
181
180
180
180
177
177
177
174
174
174
170
170
170
167
167
167
163
163
163
160
160
160
159
159
159
159
159
159
162
162
162
167
167
167
170
170
170
172
172
172
173
173
173
173
173
173
172
172
172
170
170
170
168
168
168
166
166
166
163
163
163
162
162
162
161
161
161
162
162
162
164
164
164
167
167
167
169
169
169
170
170
170
170
170
170
170
170
170
170
170
170
169
169
169
169
169
169
169
169
169
170
170
170
171
171
171
173
173
173
175
175
175
178
178
178
179
179
179
179
179
179
177
177
177
175
175
175
172
172
172
168
168
168
165
165
165
162
162
162
156
156
156
160
160
160
162
162
162
162
162
162
162
162
162
161
161
161
160
160
160
159
159
159
159
159
159
160
160
160
161
161
161
164
164
164
168
168
168
173
173
173
178
178
178
182
182
182
183
183
183
183
183
183
181
181
181
178
178
178
175
175
175
170
170
170
166
166
166
161
161
161
158
158
158
156
156
156
156
156
156
159
159
159
164
164
164
167
167
167
169
169
169
169
169
169
169
169
169
168
168
168
166
166
166
164
164
164
162
162
162
159
159
159
158
158
158
158
158
158
159
159
159
161
161
161
164
164
164
166
166
166
167
167
167
167
167
167
166
166
166
166
166
166
165
165
165
164
164
164
164
164
164
164
164
164
165
165
165
166
166
166
168
168
168
171
171
171
173
173
173
173
173
173
173
173
173
171
171
171
169
169
169
167
167
167
164
164
164
162
162
162
154
154
154
158
158
158
160
160
160
161
161
161
161
161
161
160
160
160
160
160
160
160
160
160
161
161
161
162
162
162
165
165
165
168
168
168
172
172
172
177
177
177
182
182
182
186
186
186
187
187
187
186
186
186
184
184
184
180
180
180
176
176
176
171
171
171
166
166
166
161
161
161
157
157
157
154
154
154
154
154
154
157
157
157
161
161
161
164
164
164
166
166
166
166
166
166
166
166
166
164
164
164
162
162
162
160
160
160
158
158
158
156
156
156
154
154
154
154
154
154
155
155
155
158
158
158
161
161
161
163
163
163
164
164
164
164
164
164
163
163
163
162
162
162
161
161
161
159
159
159
159
159
159
158
158
158
159
159
159
160
160
160
162
162
162
166
166
166
168
168
168
169
169
169
169
169
169
168
168
168
167
167
167
166
166
166
164
164
164
163
163
163
153
153
153
157
157
157
159
159
159
160
160
160
160
160
160
160
160
160
161
161
161
162
162
162
163
163
163
166
166
166
169
169
169
172
172
172
177
177
177
182
182
182
187
187
187
190
190
190
191
191
191
189
189
189
187
187
187
183
183
183
178
178
178
172
172
172
167
167
167
161
161
161
157
157
157
154
154
154
154
154
154
156
156
156
160
160
160
163
163
163
164
164
164
165
165
165
164
164
164
162
162
162
160
160
160
157
157
157
154
154
154
152
152
152
151
151
151
151
151
151
152
152
152
156
156
156
159
159
159
161
161
161
161
161
161
161
161
161
160
160
160
159
159
159
157
157
157
155
155
155
154
154
154
154
154
154
154
154
154
155
155
155
157
157
157
160
160
160
163
163
163
165
165
165
165
165
165
166
166
166
165
165
165
165
165
165
164
164
164
164
164
164
153
153
153
156
156
156
158
158
158
160
160
160
160
160
160
161
161
161
162
162
162
164
164
164
166
166
166
169
169
169
173
173
173
177
177
177
182
182
182
187
187
187
191
191
191
194
194
194
195
195
195
193
193
193
190
190
190
186
186
186
181
181
181
175
175
175
169
169
169
163
163
163
158
158
158
155
155
155
154
154
154
157
157
157
161
161
161
163
163
163
164
164
164
164
164
164
163
163
163
160
160
160
158
158
158
155
155
155
152
152
152
150
150
150
148
148
148
148
148
148
150
150
150
154
154
154
157
157
157
159
159
159
159
159
159
159
159
159
158
158
158
156
156
156
154
154
154
152
152
152
151
151
151
150
150
150
150
150
150
151
151
151
153
153
153
157
157
157
160
160
160
162
162
162
163
163
163
164
164
164
165
165
165
165
165
165
165
165
165
165
165
165
154
154
154
157
157
157
159
159
159
161
161
161
162
162
162
163
163
163
165
165
165
167
167
167
170
170
170
173
173
173
177
177
177
182
182
182
186
186
186
191
191
191
196
196
196
199
199
199
199
199
199
197
197
197
194
194
194
189
189
189
184
184
184
178
178
178
172
172
172
166
166
166
161
161
161
158
158
158
157
157
157
159
159
159
163
163
163
165
165
165
166
166
166
165
165
165
163
163
163
160
160
160
157
157
157
154
154
154
151
151
151
149
149
149
147
147
147
147
147
147
149
149
149
152
152
152
156
156
156
158
158
158
159
159
159
158
158
158
157
157
157
155
155
155
153
153
153
151
151
151
149
149
149
148
148
148
147
147
147
148
148
148
150
150
150
154
154
154
158
158
158
160
160
160
162
162
162
164
164
164
165
165
165
166
166
166
166
166
166
167
167
167
157
157
157
160
160
160
162
162
162
163
163
163
164
164
164
166
166
166
168
168
168
170
170
170
174
174
174
177
177
177
181
181
181
186
186
186
191
191
191
196
196
196
200
200
200
203
203
203
203
203
203
201
201
201
198
198
198
193
193
193
188
188
188
182
182
182
176
176
176
170
170
170
165
165
165
161
161
161
160
160
160
162
162
162
166
166
166
168
168
168
168
168
168
167
167
167
165
165
165
162
162
162
159
159
159
155
155
155
152
152
152
149
149
149
147
147
147
147
147
147
149
149
149
153
153
153
156
156
156
158
158
158
159
159
159
159
159
159
157
157
157
155
155
155
153
153
153
151
151
151
149
149
149
147
147
147
147
147
147
147
147
147
150
150
150
154
154
154
157
157
157
160
160
160
162
162
162
164
164
164
166
166
166
167
167
167
168
168
168
169
169
169
161
161
161
164
164
164
165
165
165
167
167
167
168
168
168
170
170
170
172
172
172
174
174
174
178
178
178
181
181
181
186
186
186
190
190
190
195
195
195
200
200
200
204
204
204
207
207
207
207
207
207
205
205
205
202
202
202
197
197
197
192
192
192
186
186
186
180
180
180
174
174
174
169
169
169
166
166
166
165
165
165
167
167
167
170
170
170
172
172
172
172
172
172
171
171
171
168
168
168
165
165
165
161
161
161
158
158
158
154
154
154
151
151
151
149
149
149
149
149
149
151
151
151
155
155
155
158
158
158
160
160
160
161
161
161
160
160
160
159
159
159
157
157
157
155
155
155
152
152
152
150
150
150
149
149
149
148
148
148
149
149
149
151
151
151
155
155
155
158
158
158
161
161
161
164
164
164
166
166
166
168
168
168
169
169
169
170
170
170
171
171
171
166
166
166
169
169
169
171
171
171
172
172
172
173
173
173
175
175
175
177
177
177
179
179
179
182
182
182
185
185
185
190
190
190
194
194
194
199
199
199
203
203
203
208
208
208
210
210
210
210
210
210
208
208
208
205
205
205
201
201
201
196
196
196
190
190
190
184
184
184
179
179
179
174
174
174
171
171
171
170
170
170
172
172
172
175
175
175
177
177
177
177
177
177
175
175
175
173
173
173
169
169
169
166
166
166
162
162
162
158
158
158
155
155
155
153
153
153
153
153
153
154
154
154
158
158
158
162
162
162
164
164
164
164
164
164
164
164
164
162
162
162
160
160
160
158
158
158
155
155
155
153
153
153
152
152
152
151
151
151
152
152
152
154
154
154
158
158
158
161
161
161
164
164
164
167
167
167
169
169
169
170
170
170
172
172
172
173
173
173
174
174
174
173
173
173
176
176
176
177
177
177
178
178
178
179
179
179
180
180
180
182
182
182
183
183
183
186
186
186
189
189
189
193
193
193
197
197
197
201
201
201
206
206
206
210
210
210
212
212
212
212
212
212
211
211
211
208
208
208
204
204
204
199
199
199
194
194
194
189
189
189
184
184
184
179
179
179
177
177
177
176
176
176
177
177
177
181
181
181
182
182
182
182
182
182
180
180
180
178
178
178
174
174
174
171
171
171
167
167
167
163
163
163
160
160
160
158
158
158
157
157
157
159
159
159
162
162
162
166
166
166
167
167
167
168
168
168
167
167
167
166
166
166
164
164
164
162
162
162
159
159
159
157
157
157
156
156
156
155
155
155
155
155
155
157
157
157
161
161
161
165
165
165
167
167
167
170
170
170
172
172
172
173
173
173
174
174
174
176
176
176
176
176
176
180
180
180
182
182
182
183
183
183
184
184
184
184
184
184
185
185
185
186
186
186
187
187
187
189
189
189
192
192
192
195
195
195
198
198
198
202
202
202
207
207
207
211
211
211
213
213
213
213
213
213
212
212
212
209
209
209
206
206
206
201
201
201
196
196
196
191
191
191
187
187
187
183
183
183
181
181
181
180
180
180
182
182
182
185
185
185
186
186
186
186
186
186
184
184
184
181
181
181
178
178
178
174
174
174
170
170
170
166
166
166
163
163
163
161
161
161
160
160
160
161
161
161
164
164
164
167
167
167
169
169
169
170
170
170
169
169
169
168
168
168
166
166
166
164
164
164
162
162
162
160
160
160
158
158
158
158
158
158
158
158
158
160
160
160
164
164
164
167
167
167
170
170
170
172
172
172
173
173
173
175
175
175
175
175
175
176
176
176
177
177
177
186
186
186
188
188
188
189
189
189
189
189
189
189
189
189
189
189
189
189
189
189
190
190
190
191
191
191
193
193
193
196
196
196
199
199
199
203
203
203
206
206
206
210
210
210
213
213
213
213
213
213
212
212
212
209
209
209
206
206
206
202
202
202
198
198
198
193
193
193
189
189
189
186
186
186
184
184
184
183
183
183
185
185
185
188
188
188
189
189
189
189
189
189
187
187
187
184
184
184
180
180
180
176
176
176
172
172
172
168
168
168
164
164
164
162
162
162
160
160
160
161
161
161
164
164
164
167
167
167
169
169
169
169
169
169
169
169
169
168
168
168
166
166
166
164
164
164
163
163
163
161
161
161
160
160
160
160
160
160
160
160
160
162
162
162
166
166
166
169
169
169
171
171
171
173
173
173
174
174
174
175
175
175
175
175
175
176
176
176
176
176
176
191
191
191
192
192
192
193
193
193
193
193
193
193
193
193
192
192
192
192
192
192
192
192
192
192
192
192
194
194
194
196
196
196
198
198
198
202
202
202
205
205
205
209
209
209
211
211
211
212
212
212
211
211
211
209
209
209
206
206
206
202
202
202
198
198
198
194
194
194
190
190
190
188
188
188
186
186
186
186
186
186
187
187
187
190
190
190
191
191
191
191
191
191
189
189
189
186
186
186
182
182
182
178
178
178
173
173
173
169
169
169
165
165
165
162
162
162
160
160
160
160
160
160
163
163
163
166
166
166
167
167
167
168
168
168
168
168
168
167
167
167
166
166
166
164
164
164
163
163
163
162
162
162
161
161
161
161
161
161
162
162
162
164
164
164
167
167
167
169
169
169
171
171
171
172
172
172
173
173
173
174
174
174
174
174
174
174
174
174
174
174
174
194
194
194
196
196
196
196
196
196
196
196
196
195
195
195
194
194
194
193
193
193
193
193
193
193
193
193
194
194
194
195
195
195
197
197
197
200
200
200
204
204
204
207
207
207
209
209
209
210
210
210
209
209
209
207
207
207
204
204
204
201
201
201
198
198
198
194
194
194
191
191
191
189
189
189
188
188
188
188
188
188
190
190
190
192
192
192
193
193
193
193
193
193
191
191
191
188
188
188
184
184
184
179
179
179
174
174
174
169
169
169
164
164
164
161
161
161
159
159
159
159
159
159
161
161
161
163
163
163
165
165
165
166
166
166
166
166
166
165
165
165
164
164
164
163
163
163
162
162
162
161
161
161
161
161
161
161
161
161
162
162
162
164
164
164
167
167
167
170
170
170
171
171
171
172
172
172
172
172
172
172
172
172
171
171
171
171
171
171
171
171
171
197
197
197
198
198
198
198
198
198
198
198
198
196
196
196
195
195
195
194
194
194
193
193
193
193
193
193
193
193
193
194
194
194
196
196
196
198
198
198
201
201
201
205
205
205
207
207
207
207
207
207
207
207
207
205
205
205
203
203
203
200
200
200
197
197
197
194
194
194
191
191
191
190
190
190
189
189
189
189
189
189
191
191
191
194
194
194
195
195
195
194
194
194
192
192
192
189
189
189
185
185
185
180
180
180
174
174
174
169
169
169
164
164
164
160
160
160
157
157
157
156
156
156
158
158
158
161
161
161
162
162
162
163
163
163
163
163
163
163
163
163
162
162
162
162
162
162
161
161
161
161
161
161
161
161
161
162
162
162
163
163
163
165
165
165
167
167
167
169
169
169
170
170
170
171
171
171
170
170
170
170
170
170
169
169
169
168
168
168
167
167
167
198
198
198
199
199
199
199
199
199
198
198
198
197
197
197
195
195
195
194
194
194
192
192
192
192
192
192
192
192
192
192
192
192
194
194
194
196
196
196
199
199
199
202
202
202
204
204
204
205
205
205
204
204
204
203
203
203
201
201
201
198
198
198
196
196
196
194
194
194
192
192
192
190
190
190
190
190
190
191
191
191
193
193
193
195
195
195
196
196
196
195
195
195
193
193
193
190
190
190
186
186
186
180
180
180
175
175
175
169
169
169
164
164
164
159
159
159
156
156
156
154
154
154
156
156
156
158
158
158
159
159
159
160
160
160
161
161
161
160
160
160
160
160
160
160
160
160
160
160
160
160
160
160
161
161
161
161
161
161
163
163
163
165
165
165
167
167
167
169
169
169
169
169
169
169
169
169
168
168
168
167
167
167
166
166
166
165
165
165
163
163
163
198
198
198
199
199
199
199
199
199
198
198
198
196
196
196
195
195
195
193
193
193
191
191
191
190
190
190
190
190
190
190
190
190
192
192
192
194
194
194
196
196
196
199
199
199
201
201
201
202
202
202
201
201
201
200
200
200
199
199
199
197
197
197
195
195
195
193
193
193
192
192
192
191
191
191
191
191
191
192
192
192
194
194
194
197
197
197
198
198
198
197
197
197
195
195
195
191
191
191
187
187
187
181
181
181
176
176
176
170
170
170
164
164
164
159
159
159
155
155
155
153
153
153
154
154
154
156
156
156
157
157
157
158
158
158
158
158
158
158
158
158
158
158
158
159
159
159
159
159
159
159
159
159
160
160
160
161
161
161
163
163
163
165
165
165
167
167
167
168
168
168
169
169
169
168
168
168
166
166
166
165
165
165
163
163
163
161
161
161
160
160
160
197
197
197
198
198
198
198
198
198
197
197
197
195
195
195
193
193
193
191
191
191
190
190
190
189
189
189
188
188
188
188
188
188
189
189
189
191
191
191
194
194
194
197
197
197
198
198
198
199
199
199
199
199
199
198
198
198
197
197
197
195
195
195
194
194
194
193
193
193
192
192
192
192
192
192
192
192
192
194
194
194
196
196
196
198
198
198
199
199
199
198
198
198
196
196
196
193
193
193
188
188
188
183
183
183
177
177
177
170
170
170
164
164
164
159
159
159
154
154
154
152
152
152
153
153
153
154
154
154
155
155
155
156
156
156
157
157
157
157
157
157
157
157
157
158
158
158
158
158
158
159
159
159
160
160
160
162
162
162
163
163
163
165
165
165
167
167
167
168
168
168
168
168
168
166
166
166
165
165
165
162
162
162
160
160
160
158
158
158
157
157
157
195
195
195
196
196
196
196
196
196
195
195
195
193
193
193
191
191
191
190
190
190
188
188
188
187
187
187
186
186
186
187
187
187
188
188
188
189
189
189
192
192
192
194
194
194
196
196
196
197
197
197
197
197
197
196
196
196
195
195
195
194
194
194
194
194
194
193
193
193
193
193
193
193
193
193
194
194
194
196
196
196
198
198
198
200
200
200
201
201
201
200
200
200
198
198
198
195
195
195
190
190
190
185
185
185
179
179
179
172
172
172
166
166
166
160
160
160
155
155
155
153
153
153
153
153
153
154
154
154
155
155
155
156
156
156
156
156
156
156
156
156
157
157
157
157
157
157
158
158
158
159
159
159
161
161
161
162
162
162
164
164
164
165
165
165
167
167
167
168
168
168
167
167
167
166
166
166
163
163
163
161
161
161
158
158
158
156
156
156
154
154
154
193
193
193
194
194
194
194
194
194
193
193
193
191
191
191
189
189
189
188
188
188
186
186
186
185
185
185
185
185
185
185
185
185
186
186
186
188
188
188
190
190
190
193
193
193
194
194
194
195
195
195
195
195
195
195
195
195
195
195
195
194
194
194
194
194
194
194
194
194
194
194
194
195
195
195
196
196
196
198
198
198
200
200
200
203
203
203
203
203
203
203
203
203
200
200
200
197
197
197
193
193
193
187
187
187
181
181
181
175
175
175
168
168
168
162
162
162
157
157
157
154
154
154
154
154
154
155
155
155
156
156
156
156
156
156
157
157
157
157
157
157
158
158
158
158
158
158
159
159
159
160
160
160
162
162
162
163
163
163
165
165
165
166
166
166
168
168
168
169
169
169
168
168
168
166
166
166
163
163
163
160
160
160
157
157
157
155
155
155
153
153
153
191
191
191
192
192
192
192
192
192
191
191
191
189
189
189
188
188
188
186
186
186
185
185
185
184
184
184
184
184
184
185
185
185
186
186
186
187
187
187
190
190
190
192
192
192
194
194
194
195
195
195
195
195
195
195
195
195
195
195
195
195
195
195
195
195
195
195
195
195
196
196
196
197
197
197
199
199
199
201
201
201
203
203
203
205
205
205
206
206
206
205
205
205
203
203
203
200
200
200
196
196
196
190
190
190
185
185
185
178
178
178
172
172
172
166
166
166
161
161
161
158
158
158
157
157
157
158
158
158
158
158
158
159
159
159
159
159
159
159
159
159
160
160
160
160
160
160
161
161
161
162
162
162
163
163
163
165
165
165
166
166
166
168
168
168
170
170
170
170
170
170
169
169
169
167
167
167
164
164
164
161
161
161
158
158
158
155
155
155
153
153
153
189
189
189
190
190
190
190
190
190
189
189
189
188
188
188
187
187
187
186
186
186
185
185
185
184
184
184
184
184
184
185
185
185
186
186
186
188
188
188
190
190
190
193
193
193
194
194
194
195
195
195
196
196
196
196
196
196
196
196
196
196
196
196
197
197
197
198
198
198
199
199
199
200
200
200
202
202
202
204
204
204
207
207
207
209
209
209
210
210
210
209
209
209
207
207
207
204
204
204
200
200
200
195
195
195
189
189
189
183
183
183
176
176
176
170
170
170
166
166
166
163
163
163
162
162
162
163
163
163
163
163
163
163
163
163
163
163
163
163
163
163
163
163
163
163
163
163
164
164
164
165
165
165
166
166
166
167
167
167
169
169
169
170
170
170
172
172
172
172
172
172
171
171
171
169
169
169
166
166
166
163
163
163
160
160
160
157
157
157
155
155
155
189
189
189
190
190
190
190
190
190
189
189
189
188
188
188
187
187
187
186
186
186
186
186
186
185
185
185
186
186
186
187
187
187
188
188
188
190
190
190
192
192
192
195
195
195
196
196
196
197
197
197
198
198
198
199
199
199
199
199
199
199
199
199
200
200
200
201
201
201
202
202
202
204
204
204
206
206
206
208
208
208
211
211
211
213
213
213
214
214
214
213
213
213
211
211
211
208
208
208
204
204
204
199
199
199
194
194
194
188
188
188
182
182
182
177
177
177
172
172
172
169
169
169
168
168
168
169
169
169
169
169
169
169
169
169
169
169
169
168
168
168
168
168
168
168
168
168
168
168
168
169
169
169
170
170
170
171
171
171
172
172
172
174
174
174
175
175
175
175
175
175
174
174
174
172
172
172
169
169
169
166
166
166
164
164
164
161
161
161
160
160
160
188
188
188
190
190
190
190
190
190
189
189
189
189
189
189
188
188
188
187
187
187
187
187
187
187
187
187
188
188
188
189
189
189
191
191
191
193
193
193
195
195
195
197
197
197
199
199
199
200
200
200
201
201
201
202
202
202
202
202
202
203
203
203
204
204
204
205
205
205
206
206
206
208
208
208
210
210
210
212
212
212
214
214
214
217
217
217
217
217
217
217
217
217
215
215
215
213
213
213
209
209
209
204
204
204
199
199
199
194
194
194
188
188
188
183
183
183
179
179
179
176
176
176
175
175
175
176
176
176
176
176
176
175
175
175
174
174
174
174
174
174
173
173
173
173
173
173
172
172
172
173
173
173
173
173
173
174
174
174
175
175
175
176
176
176
177
177
177
177
177
177
176
176
176
174
174
174
172
172
172
169
169
169
167
167
167
165
165
165
163
163
163
188
188
188
189
189
189
190
190
190
190
190
190
189
189
189
189
189
189
189
189
189
189
189
189
189
189
189
190
190
190
191
191
191
193
193
193
195
195
195
197
197
197
200
200
200
202
202
202
203
203
203
204
204
204
205
205
205
205
205
205
206
206
206
207
207
207
208
208
208
209
209
209
211
211
211
213
213
213
215
215
215
217
217
217
219
219
219
220
220
220
220
220
220
218
218
218
216
216
216
213
213
213
208
208
208
204
204
204
199
199
199
194
194
194
189
189
189
185
185
185
183
183
183
182
182
182
182
182
182
182
182
182
181
181
181
180
180
180
178
178
178
177
177
177
176
176
176
175
175
175
174
174
174
174
174
174
174
174
174
175
175
175
176
176
176
177
177
177
177
177
177
176
176
176
174
174
174
172
172
172
170
170
170
167
167
167
166
166
166
164
164
164
187
187
187
189
189
189
189
189
189
190
190
190
190
190
190
190
190
190
190
190
190
190
190
190
191
191
191
192
192
192
193
193
193
195
195
195
197
197
197
200
200
200
203
203
203
205
205
205
206
206
206
207
207
207
208
208
208
208
208
208
209
209
209
210
210
210
210
210
210
211
211
211
213
213
213
214
214
214
216
216
216
218
218
218
220
220
220
221
221
221
221
221
221
220
220
220
218
218
218
215
215
215
212
212
212
208
208
208
203
203
203
199
199
199
194
194
194
191
191
191
188
188
188
188
188
188
188
188
188
187
187
187
185
185
185
184
184
184
182
182
182
180
180
180
178
178
178
176
176
176
175
175
175
174
174
174
174
174
174
173
173
173
174
174
174
175
175
175
175
175
175
174
174
174
173
173
173
171
171
171
169
169
169
167
167
167
165
165
165
165
165
165
186
186
186
188
188
188
189
189
189
190
190
190
190
190
190
190
190
190
191
191
191
191
191
191
192
192
192
193
193
193
195
195
195
197
197
197
199
199
199
202
202
202
205
205
205
207
207
207
209
209
209
210
210
210
210
210
210
211
211
211
211
211
211
212
212
212
212
212
212
213
213
213
214
214
214
215
215
215
217
217
217
219
219
219
221
221
221
222
222
222
222
222
222
221
221
221
220
220
220
217
217
217
214
214
214
211
211
211
207
207
207
203
203
203
199
199
199
195
195
195
193
193
193
193
193
193
192
192
192
191
191
191
189
189
189
187
187
187
184
184
184
182
182
182
179
179
179
177
177
177
175
175
175
173
173
173
172
172
172
171
171
171
172
172
172
173
173
173
173
173
173
172
172
172
170
170
170
169
169
169
167
167
167
165
165
165
164
164
164
164
164
164
185
185
185
188
188
188
189
189
189
190
190
190
191
191
191
191
191
191
192
192
192
192
192
192
193
193
193
194
194
194
196
196
196
198
198
198
201
201
201
204
204
204
207
207
207
209
209
209
211
211
211
212
212
212
212
212
212
213
213
213
213
213
213
213
213
213
213
213
213
214
214
214
214
214
214
215
215
215
217
217
217
218
218
218
220
220
220
221
221
221
222
222
222
221
221
221
220
220
220
218
218
218
216
216
216
212
212
212
209
209
209
205
205
205
202
202
202
199
199
199
197
197
197
196
196
196
196
196
196
194
194
194
192
192
192
189
189
189
186
186
186
183
183
183
180
180
180
177
177
177
174
174
174
172
172
172
170
170
170
169
169
169
169
169
169
170
170
170
169
169
169
169
169
169
167
167
167
166
166
166
165
165
165
164
164
164
163
163
163
163
163
163
185
185
185
188
188
188
190
190
190
191
191
191
192
192
192
192
192
192
193
193
193
193
193
193
194
194
194
195
195
195
197
197
197
199
199
199
202
202
202
205
205
205
208
208
208
211
211
211
212
212
212
213
213
213
214
214
214
214
214
214
214
214
214
214
214
214
214
214
214
214
214
214
214
214
214
214
214
214
215
215
215
217
217
217
219
219
219
220
220
220
221
221
221
221
221
221
220
220
220
218
218
218
216
216
216
213
213
213
210
210
210
207
207
207
204
204
204
201
201
201
200
200
200
199
199
199
198
198
198
196
196
196
194
194
194
191
191
191
187
187
187
184
184
184
180
180
180
176
176
176
173
173
173
170
170
170
168
168
168
167
167
167
166
166
166
167
167
167
167
167
167
166
166
166
165
165
165
163
163
163
162
162
162
162
162
162
161
161
161
162
162
162
185
185
185
188
188
188
190
190
190
192
192
192
193
193
193
193
193
193
194
194
194
194
194
194
195
195
195
196
196
196
198
198
198
200
200
200
202
202
202
205
205
205
209
209
209
212
212
212
214
214
214
215
215
215
215
215
215
215
215
215
215
215
215
214
214
214
214
214
214
213
213
213
213
213
213
213
213
213
214
214
214
215
215
215
217
217
217
218
218
218
219
219
219
219
219
219
219
219
219
218
218
218
216
216
216
214
214
214
211
211
211
208
208
208
205
205
205
203
203
203
201
201
201
200
200
200
199
199
199
197
197
197
195
195
195
191
191
191
188
188
188
184
184
184
180
180
180
176
176
176
172
172
172
169
169
169
167
167
167
165
165
165
164
164
164
165
165
165
164
164
164
164
164
164
163
163
163
162
162
162
161
161
161
160
160
160
161
161
161
161
161
161
185
185
185
188
188
188
191
191
191
193
193
193
194
194
194
194
194
194
195
195
195
195
195
195
196
196
196
197
197
197
198
198
198
200
200
200
202
202
202
206
206
206
209
209
209
212
212
212
214
214
214
215
215
215
216
216
216
216
216
216
215
215
215
214
214
214
213
213
213
213
213
213
212
212
212
211
211
211
212
212
212
213
213
213
215
215
215
216
216
216
217
217
217
218
218
218
217
217
217
216
216
216
215
215
215
213
213
213
211
211
211
208
208
208
206
206
206
203
203
203
201
201
201
200
200
200
199
199
199
197
197
197
195
195
195
191
191
191
188
188
188
184
184
184
180
180
180
176
176
176
172
172
172
169
169
169
167
167
167
165
165
165
164
164
164
164
164
164
163
163
163
163
163
163
162
162
162
161
161
161
160
160
160
160
160
160
160
160
160
161
161
161
185
185
185
189
189
189
192
192
192
194
194
194
195
195
195
195
195
195
196
196
196
196
196
196
196
196
196
197
197
197
198
198
198
200
200
200
202
202
202
205
205
205
209
209
209
213
213
213
215
215
215
216
216
216
216
216
216
216
216
216
215
215
215
214
214
214
213
213
213
211
211
211
210
210
210
210
210
210
210
210
210
210
210
210
212
212
212
214
214
214
215
215
215
215
215
215
215
215
215
215
215
215
214
214
214
212
212
212
210
210
210
208
208
208
205
205
205
203
203
203
201
201
201
200
200
200
199
199
199
197
197
197
194
194
194
191
191
191
187
187
187
184
184
184
180
180
180
176
176
176
173
173
173
170
170
170
168
168
168
166
166
166
165
165
165
164
164
164
164
164
164
163
163
163
162
162
162
161
161
161
161
161
161
161
161
161
161
161
161
162
162
162
186
186
186
191
191
191
194
194
194
195
195
195
196
196
196
197
197
197
197
197
197
197
197
197
197
197
197
197
197
197
198
198
198
199
199
199
202
202
202
205
205
205
209
209
209
212
212
212
215
215
215
216
216
216
216
216
216
216
216
216
215
215
215
214
214
214
212
212
212
210
210
210
209
209
209
208
208
208
207
207
207
208
208
208
210
210
210
212
212
212
213
213
213
213
213
213
214
214
214
213
213
213
212
212
212
211
211
211
209
209
209
206
206
206
204
204
204
202
202
202
200
200
200
199
199
199
197
197
197
195
195
195
193
193
193
190
190
190
187
187
187
184
184
184
180
180
180
177
177
177
175
175
175
172
172
172
170
170
170
168
168
168
167
167
167
167
167
167
166
166
166
165
165
165
164
164
164
163
163
163
163
163
163
163
163
163
163
163
163
165
165
165
187
187
187
192
192
192
195
195
195
197
197
197
198
198
198
198
198
198
197
197
197
197
197
197
197
197
197
197
197
197
197
197
197
199
199
199
201
201
201
204
204
204
208
208
208
212
212
212
214
214
214
216
216
216
216
216
216
216
216
216
215
215
215
213
213
213
211
211
211
209
209
209
207
207
207
206
206
206
206
206
206
206
206
206
208
208
208
210
210
210
211
211
211
212
212
212
212
212
212
212
212
212
211
211
211
209
209
209
207
207
207
205
205
205
203
203
203
200
200
200
198
198
198
197
197
197
196
196
196
194
194
194
192
192
192
190
190
190
187
187
187
184
184
184
182
182
182
179
179
179
177
177
177
175
175
175
173
173
173
172
172
172
171
171
171
171
171
171
170
170
170
169
169
169
168
168
168
167
167
167
166
166
166
167
167
167
167
167
167
168
168
168
189
189
189
193
193
193
196
196
196
198
198
198
199
199
199
199
199
199
198
198
198
197
197
197
197
197
197
196
196
196
197
197
197
198
198
198
200
200
200
203
203
203
208
208
208
211
211
211
214
214
214
215
215
215
216
216
216
216
216
216
214
214
214
213
213
213
211
211
211
209
209
209
207
207
207
205
205
205
205
205
205
205
205
205
207
207
207
209
209
209
210
210
210
211
211
211
211
211
211
211
211
211
210
210
210
208
208
208
206
206
206
204
204
204
202
202
202
199
199
199
197
197
197
196
196
196
195
195
195
193
193
193
191
191
191
190
190
190
188
188
188
186
186
186
184
184
184
182
182
182
181
181
181
180
180
180
178
178
178
177
177
177
177
177
177
176
176
176
175
175
175
174
174
174
173
173
173
172
172
172
172
172
172
172
172
172
172
172
172
173
173
173
190
190
190
195
195
195
198
198
198
199
199
199
200
200
200
200
200
200
199
199
199
198
198
198
197
197
197
196
196
196
196
196
196
197
197
197
199
199
199
203
203
203
207
207
207
211
211
211
214
214
214
215
215
215
216
216
216
216
216
216
214
214
214
213
213
213
211
211
211
209
209
209
207
207
207
205
205
205
205
205
205
205
205
205
207
207
207
209
209
209
210
210
210
211
211
211
211
211
211
210
210
210
209
209
209
208
208
208
206
206
206
204
204
204
201
201
201
199
199
199
196
196
196
195
195
195
194
194
194
193
193
193
192
192
192
191
191
191
189
189
189
188
188
188
187
187
187
186
186
186
186
186
186
185
185
185
185
185
185
184
184
184
183
183
183
183
183
183
182
182
182
181
181
181
180
180
180
179
179
179
178
178
178
178
178
178
178
178
178
179
179
179
191
191
191
196
196
196
199
199
199
200
200
200
201
201
201
200
200
200
199
199
199
198
198
198
197
197
197
196
196
196
196
196
196
197
197
197
199
199
199
202
202
202
207
207
207
210
210
210
213
213
213
215
215
215
216
216
216
216
216
216
215
215
215
213
213
213
212
212
212
210
210
210
208
208
208
207
207
207
206
206
206
207
207
207
209
209
209
210
210
210
211
211
211
212
212
212
212
212
212
212
212
212
210
210
210
209
209
209
207
207
207
204
204
204
202
202
202
199
199
199
197
197
197
196
196
196
195
195
195
194
194
194
193
193
193
193
193
193
192
192
192
192
192
192
192
192
192
191
191
191
192
192
192
192
192
192
192
192
192
191
191
191
191
191
191
190
190
190
190
190
190
188
188
188
187
187
187
186
186
186
185
185
185
185
185
185
185
185
185
186
186
186
191
191
191
196
196
196
199
199
199
200
200
200
200
200
200
200
200
200
199
199
199
197
197
197
196
196
196
195
195
195
195
195
195
195
195
195
197
197
197
200
200
200
205
205
205
209
209
209
212
212
212
213
213
213
214
214
214
214
214
214
214
214
214
213
213
213
211
211
211
210
210
210
208
208
208
207
207
207
207
207
207
207
207
207
209
209
209
211
211
211
212
212
212
213
213
213
212
212
212
212
212
212
211
211
211
209
209
209
207
207
207
204
204
204
202
202
202
199
199
199
197
197
197
196
196
196
195
195
195
195
195
195
195
195
195
195
195
195
195
195
195
195
195
195
195
195
195
196
196
196
196
196
196
197
197
197
197
197
197
197
197
197
197
197
197
197
197
197
196
196
196
195
195
195
193
193
193
192
192
192
191
191
191
191
191
191
191
191
191
191
191
191
191
191
191
195
195
195
198
198
198
199
199
199
199
199
199
198
198
198
197
197
197
195
195
195
194
194
194
193
193
193
192
192
192
193
193
193
194
194
194
198
198
198
202
202
202
206
206
206
209
209
209
211
211
211
212
212
212
212
212
212
212
212
212
211
211
211
209
209
209
208
208
208
207
207
207
206
206
206
206
206
206
207
207
207
209
209
209
211
211
211
212
212
212
212
212
212
212
212
212
211
211
211
210
210
210
208
208
208
206
206
206
203
203
203
201
201
201
198
198
198
197
197
197
196
196
196
195
195
195
195
195
195
196
196
196
196
196
196
197
197
197
197
197
197
198
198
198
199
199
199
200
200
200
201
201
201
201
201
201
202
202
202
202
202
202
201
201
201
200
200
200
199
199
199
198
198
198
197
197
197
196
196
196
195
195
195
195
195
195
195
195
195
189
189
189
194
194
194
196
196
196
197
197
197
197
197
197
196
196
196
195
195
195
193
193
193
191
191
191
190
190
190
189
189
189
190
190
190
191
191
191
194
194
194
199
199
199
203
203
203
205
205
205
207
207
207
208
208
208
209
209
209
208
208
208
208
208
208
207
207
207
206
206
206
205
205
205
204
204
204
204
204
204
206
206
206
208
208
208
209
209
209
210
210
210
211
211
211
211
211
211
210
210
210
208
208
208
207
207
207
204
204
204
202
202
202
200
200
200
198
198
198
196
196
196
195
195
195
196
196
196
196
196
196
197
197
197
197
197
197
198
198
198
199
199
199
200
200
200
201
201
201
203
203
203
203
203
203
204
204
204
205
205
205
205
205
205
205
205
205
204
204
204
203
203
203
201
201
201
200
200
200
198
198
198
197
197
197
197
197
197
197
197
197
187
187
187
192
192
192
194
194
194
195
195
195
195
195
195
194
194
194
192
192
192
190
190
190
189
189
189
187
187
187
187
187
187
187
187
187
188
188
188
191
191
191
195
195
195
199
199
199
202
202
202
203
203
203
204
204
204
205
205
205
204
204
204
204
204
204
203
203
203
202
202
202
202
202
202
202
202
202
202
202
202
204
204
204
206
206
206
207
207
207
209
209
209
209
209
209
209
209
209
208
208
208
206
206
206
205
205
205
203
203
203
200
200
200
198
198
198
196
196
196
195
195
195
195
195
195
196
196
196
196
196
196
197
197
197
199
199
199
200
200
200
201
201
201
202
202
202
203
203
203
204
204
204
205
205
205
206
206
206
207
207
207
207
207
207
207
207
207
206
206
206
205
205
205
203
203
203
201
201
201
200
200
200
199
199
199
198
198
198
198
198
198
185
185
185
189
189
189
192
192
192
193
193
193
192
192
192
191
191
191
190
190
190
188
188
188
186
186
186
185
185
185
184
184
184
184
184
184
185
185
185
188
188
188
192
192
192
196
196
196
198
198
198
200
200
200
200
200
200
200
200
200
200
200
200
200
200
200
199
199
199
198
198
198
198
198
198
198
198
198
199
199
199
201
201
201
203
203
203
205
205
205
206
206
206
207
207
207
206
206
206
205
205
205
204
204
204
202
202
202
201
201
201
199
199
199
197
197
197
195
195
195
195
195
195
195
195
195
196
196
196
197
197
197
198
198
198
200
200
200
201
201
201
202
202
202
203
203
203
204
204
204
205
205
205
206
206
206
207
207
207
208
208
208
208
208
208
208
208
208
207
207
207
206
206
206
204
204
204
202
202
202
200
200
200
198
198
198
197
197
197
197
197
197
183
183
183
187
187
187
189
189
189
190
190
190
190
190
190
189
189
189
187
187
187
186
186
186
184
184
184
182
182
182
182
182
182
182
182
182
183
183
183
185
185
185
189
189
189
192
192
192
195
195
195
196
196
196
196
196
196
196
196
196
196
196
196
195
195
195
195
195
195
194
194
194
194
194
194
195
195
195
196
196
196
198
198
198
200
200
200
202
202
202
203
203
203
204
204
204
204
204
204
203
203
203
202
202
202
200
200
200
198
198
198
197
197
197
195
195
195
194
194
194
194
194
194
195
195
195
196
196
196
198
198
198
199
199
199
201
201
201
202
202
202
203
203
203
204
204
204
205
205
205
206
206
206
207
207
207
207
207
207
208
208
208
208
208
208
209
209
209
208
208
208
206
206
206
204
204
204
202
202
202
199
199
199
197
197
197
196
196
196
195
195
195
181
181
181
185
185
185
187
187
187
188
188
188
188
188
188
187
187
187
185
185
185
184
184
184
182
182
182
181
181
181
180
180
180
180
180
180
181
181
181
183
183
183
187
187
187
190
190
190
192
192
192
193
193
193
193
193
193
192
192
192
192
192
192
191
191
191
190
190
190
190
190
190
190
190
190
191
191
191
192
192
192
195
195
195
197
197
197
199
199
199
201
201
201
201
201
201
201
201
201
200
200
200
199
199
199
198
198
198
196
196
196
195
195
195
194
194
194
193
193
193
194
194
194
195
195
195
197
197
197
199
199
199
201
201
201
202
202
202
203
203
203
204
204
204
205
205
205
206
206
206
206
206
206
207
207
207
207
207
207
208
208
208
208
208
208
209
209
209
208
208
208
206
206
206
204
204
204
201
201
201
198
198
198
195
195
195
193
193
193
192
192
192
179
179
179
183
183
183
185
185
185
186
186
186
186
186
186
185
185
185
184
184
184
182
182
182
181
181
181
180
180
180
179
179
179
179
179
179
180
180
180
183
183
183
186
186
186
188
188
188
190
190
190
190
190
190
190
190
190
189
189
189
188
188
188
187
187
187
186
186
186
186
186
186
186
186
186
187
187
187
189
189
189
191
191
191
194
194
194
197
197
197
198
198
198
198
198
198
198
198
198
198
198
198
197
197
197
196
196
196
195
195
195
194
194
194
193
193
193
193
193
193
194
194
194
196
196
196
198
198
198
200
200
200
202
202
202
203
203
203
204
204
204
205
205
205
206
206
206
206
206
206
207
207
207
207
207
207
207
207
207
207
207
207
208
208
208
208
208
208
208
208
208
205
205
205
203
203
203
199
199
199
196
196
196
193
193
193
190
190
190
188
188
188
